<svg width="165" height="165" viewBox="0 0 165 165" fill="none" xmlns="http://www.w3.org/2000/svg">
<path fill-rule="evenodd" clip-rule="evenodd" d="M159.872 25.41C156.207 17.9128 150.525 11.5857 143.464 7.13936C136.402 2.69301 128.241 0.303518 119.896 0.239247C111.551 0.174975 103.354 2.43847 96.225 6.77552C89.0957 11.1126 83.3168 17.3514 79.5374 24.7912C68.3174 45.4437 77.4061 73.3906 90.8261 80.7537C91.1264 80.9219 91.4634 81.0138 91.8075 81.0214C92.1516 81.029 92.4923 80.952 92.7997 80.7973C93.1071 80.6426 93.3719 80.4148 93.5708 80.1339C93.7697 79.853 93.8966 79.5276 93.9405 79.1862C93.9853 78.7754 93.9097 78.3605 93.723 77.9919C93.5362 77.6232 93.2463 77.3168 92.8886 77.11C81.813 70.2212 74.8555 45.1687 85.2505 28.0225C88.1362 22.8279 92.1879 18.3736 97.0867 15.0102C101.986 11.6467 107.598 9.46569 113.483 8.63875C119.367 7.8118 125.363 8.36146 130.999 10.2445C136.636 12.1275 141.758 15.2925 145.964 19.4906C151.15 24.4427 154.846 30.7476 156.634 37.6917C158.422 44.6358 158.231 51.9419 156.082 58.7829C153.933 65.6239 149.912 71.7267 144.473 76.4006C139.035 81.0745 132.397 84.1328 125.311 85.2294C119.185 86.5316 112.854 86.5316 106.728 85.2294C106.408 85.0916 106.063 85.0248 105.715 85.0336C105.367 85.0425 105.025 85.1267 104.712 85.2805C104.4 85.4343 104.125 85.6541 103.906 85.9246C103.687 86.1951 103.529 86.5099 103.443 86.8473C103.358 87.1847 103.346 87.5367 103.41 87.879C103.473 88.2212 103.611 88.5456 103.812 88.8297C104.013 89.1138 104.273 89.3508 104.575 89.5245C104.877 89.6982 105.213 89.8043 105.559 89.8356C112.33 91.4676 119.372 91.6317 126.212 90.3169C133.334 89.391 140.128 86.7559 146.011 82.6364C151.895 78.5168 156.695 73.0351 160.002 66.6588C163.309 60.2826 165.024 53.201 165.001 46.0184C164.978 38.8358 163.219 31.7652 159.872 25.41Z" fill="#1D3A70"/>
<path fill-rule="evenodd" clip-rule="evenodd" d="M130.55 116.827C131.164 114.457 131.09 111.961 130.336 109.632C129.582 107.303 128.18 105.236 126.294 103.676C124.407 102.115 122.115 101.124 119.686 100.82C117.257 100.515 114.791 100.909 112.578 101.956C106.318 105.443 100.743 110.039 96.1265 115.521C92.689 118.614 86.5565 123.502 83.7377 125.709L82.844 126.672C80.7127 126.72 78.5815 126.486 76.5121 125.984C72.3802 124.953 68.7983 124.541 67.3546 122.746C66.7358 121.99 67.3546 121.096 68.5921 119.446C76.9246 106.707 87.1752 102.712 79.8808 90.3237C78.7821 88.5721 77.1221 87.2446 75.1718 86.5578C73.2214 85.8711 71.0959 85.8657 69.1421 86.5425C58.6783 88.7425 49.0396 98.5806 38.5758 104.782C38.2851 104.932 38.0277 105.139 37.8193 105.391C37.6108 105.643 37.4556 105.934 37.363 106.248C37.2704 106.562 37.2423 106.891 37.2804 107.215C37.3186 107.54 37.4221 107.854 37.5849 108.138C37.7477 108.421 37.9662 108.669 38.2274 108.866C38.4885 109.063 38.7868 109.204 39.1044 109.283C39.4219 109.361 39.752 109.374 40.0747 109.321C40.3974 109.269 40.7061 109.151 40.9821 108.976C52.0027 103.063 58.7471 96.1743 68.1108 92.7987C70.9296 91.905 73.6865 91.1487 74.9927 93.3487C75.6569 94.2199 76.1032 95.2373 76.2946 96.316C76.4859 97.3946 76.4167 98.5034 76.0927 99.55C73.6177 106.432 55.0277 117.927 62.329 127.084C65.5602 131.416 77.7496 133.966 83.8065 134.31C91.7514 134.143 99.6505 133.059 107.346 131.079C128.343 125.709 130.756 122.196 133.231 127.291C135.156 131.347 126.693 137.273 123.042 139.954C95.0265 161.226 47.9396 148.012 46.5646 148.356C30.1815 152.756 32.794 152.549 32.794 151.656C33.7565 139.913 33.9352 128.116 33.344 116.346C33.344 110.701 33.344 103.537 29.219 99.4812C25.0871 95.4181 18.549 97.1437 13.5233 97.075C9.38418 96.5003 5.16848 96.8765 1.19647 98.175C0.735628 98.4357 0.390518 98.8612 0.23044 99.366C0.0703617 99.8707 0.10717 100.417 0.333474 100.896C0.559778 101.375 0.958818 101.75 1.45046 101.947C1.94211 102.143 2.48995 102.147 2.98397 101.956C6.37513 101.45 9.83025 101.566 13.1796 102.3C17.2358 102.781 21.849 101.681 24.1246 104.225C26.3933 106.776 25.2246 113.176 25.1558 116.414C24.4683 154 25.6371 155.306 23.7121 157.025C20.4052 159.919 8.49772 158.812 3.81584 158.125C3.22254 158.057 2.62517 158.212 2.13923 158.559C1.6533 158.906 1.31333 159.421 1.18505 160.004C1.05678 160.587 1.14931 161.197 1.44476 161.716C1.74021 162.235 2.21759 162.626 2.78459 162.814C9.66647 164.532 22.1927 166.457 27.6996 162.126C29.2671 160.834 30.4152 159.101 31.0065 157.169C36.3415 156.331 41.594 155.038 46.7021 153.312C71.899 160.194 105.621 161.638 127.174 146.424C132.242 143.317 136.565 139.135 139.838 134.172C140.768 132.458 141.258 130.539 141.263 128.588C141.269 126.638 140.79 124.716 139.869 122.996C138.948 121.277 137.614 119.813 135.988 118.736C134.361 117.659 132.492 117.003 130.55 116.827ZM94.1327 125.434C90.9702 125.916 92.6202 126.053 100.465 120.959C107.346 116.208 116.023 106.157 121.117 108.426C122.767 109.191 124.089 110.52 124.845 112.174C125.601 113.828 125.742 115.697 125.242 117.446C112.716 120.608 105.765 123.709 94.339 125.572L94.1327 125.434ZM103.84 30.0231C103.612 30.2007 103.43 30.4312 103.31 30.6946C103.19 30.9581 103.136 31.2467 103.153 31.5356C103.153 32.0168 101.365 54.3881 101.434 54.8693C101.434 61.7581 104.94 63.9581 111.891 65.2643C110.378 69.2587 113.403 73.5281 114.916 73.5281C116.435 73.5281 118.635 67.9525 117.466 65.8831C119.006 65.9885 120.544 65.9885 122.08 65.8831C122.08 68.0143 122.63 74.0781 125.242 74.0781C127.855 74.0781 129.656 68.0212 128.205 64.8518C130.706 64.4951 133.019 63.3237 134.787 61.5189C136.554 59.7142 137.677 57.377 137.981 54.8693C138.172 52.9032 137.794 50.9236 136.892 49.1662C135.99 47.4087 134.602 45.9472 132.894 44.9556C138.806 40.4181 138.394 30.2293 126.418 28.2975C128.274 23.21 126.418 23.6225 126.418 19.9718C126.4 19.5098 126.204 19.0726 125.87 18.7521C125.537 18.4316 125.093 18.2527 124.63 18.2531C123.668 18.2531 123.186 18.7343 122.43 19.3531C121.605 20.8748 121.007 22.4789 120.636 24.1656C120.498 25.4237 120.643 26.6887 121.048 27.885C115.335 27.885 115.198 28.435 115.541 27.885C116.078 26.675 116.311 25.355 116.229 24.035C115.404 17.1462 114.716 18.5281 113.823 18.04C112.929 17.5518 110.035 21.4156 109.553 23.76C109.453 24.4668 109.453 25.1844 109.553 25.8912V27.06L109.897 29.0537C103.565 29.9475 104.665 29.4043 103.84 30.0231ZM129.168 57.5506C122.382 60.5206 114.73 60.8918 107.69 58.5818C105.628 56.8631 106.178 51.0125 106.453 47.9118C110.646 48.5993 126.211 47.9118 129.718 51.0056C130.218 51.4004 130.613 51.9134 130.866 52.4985C131.12 53.0835 131.224 53.7223 131.169 54.3575C131.115 54.9927 130.903 55.6044 130.554 56.1378C130.205 56.6711 129.728 57.1093 129.168 57.4131V57.5506ZM113.472 32.56C118.016 32.56 130.412 32.1475 130.962 36.5475C131.512 40.9612 125.593 42.0612 120.911 42.13C105.353 40.4112 107.14 43.7112 107.14 40.3425V33.7975C108.309 33.385 105.696 33.66 113.472 32.56Z" fill="#020202"/>
</svg>
