<svg width="45" height="45" viewBox="0 0 45 45" fill="none" xmlns="http://www.w3.org/2000/svg">
<path d="M1.14258 31.5088C1.77359 31.5088 2.28516 32.0204 2.28516 32.6514V37.7051C2.28516 40.4674 4.53256 42.7148 7.29492 42.7148H12.3486C12.9796 42.7148 13.4912 43.2264 13.4912 43.8574C13.4912 44.4884 12.9796 45 12.3486 45H7.29492C3.27252 45 0 41.7275 0 37.7051V32.6514C0 32.0204 0.511567 31.5088 1.14258 31.5088ZM43.8574 31.5088C44.4884 31.5088 45 32.0204 45 32.6514V37.7051C45 41.7275 41.7275 45 37.7051 45H32.6514C32.0204 45 31.5088 44.4884 31.5088 43.8574C31.5088 43.2264 32.0204 42.7148 32.6514 42.7148H37.7051C40.4674 42.7148 42.7148 40.4674 42.7148 37.7051V32.6514C42.7148 32.0204 43.2264 31.5088 43.8574 31.5088ZM28.7744 31.5156C29.2558 31.0711 30.0065 31.1016 30.4512 31.583C30.8957 32.0644 30.8661 32.8151 30.3848 33.2598C28.2322 35.2479 25.432 36.3427 22.5 36.3428C19.568 36.3428 16.7678 35.2479 14.6152 33.2598C14.1339 32.8151 14.1042 32.0644 14.5488 31.583C14.9934 31.1019 15.7431 31.0715 16.2246 31.5156C17.9375 33.0978 20.1665 33.9697 22.5 33.9697C24.8335 33.9697 27.0616 33.0978 28.7744 31.5156ZM23.6865 15.7764C24.3418 15.7764 24.873 16.3076 24.873 16.9629V25.4004C24.873 27.0724 23.5128 28.4326 21.8408 28.4326H20.874C20.2187 28.4326 19.6875 27.9014 19.6875 27.2461C19.6875 26.5908 20.2187 26.0596 20.874 26.0596H21.8408C22.2043 26.0596 22.5 25.7639 22.5 25.4004V16.9629C22.5 16.3076 23.0312 15.7764 23.6865 15.7764ZM13.3379 15.7764C13.9565 15.7766 14.458 16.2787 14.458 16.8975V20.2812C14.4577 20.8997 13.9564 21.4011 13.3379 21.4014C12.7192 21.4014 12.2171 20.8999 12.2168 20.2812V16.8975C12.2168 16.2786 12.719 15.7764 13.3379 15.7764ZM31.9268 15.7764C32.5454 15.7766 33.0469 16.2787 33.0469 16.8975V20.2812C33.0466 20.8997 32.5453 21.4011 31.9268 21.4014C31.308 21.4014 30.8059 20.8999 30.8057 20.2812V16.8975C30.8057 16.2786 31.3079 15.7764 31.9268 15.7764ZM12.3486 0C12.9796 0 13.4912 0.511567 13.4912 1.14258C13.4912 1.77359 12.9796 2.28516 12.3486 2.28516H7.29492C4.53256 2.28516 2.28516 4.53252 2.28516 7.29492V12.3486C2.28516 12.9796 1.77359 13.4912 1.14258 13.4912C0.511567 13.4912 0 12.9796 0 12.3486V7.29492C0 3.27248 3.27252 0 7.29492 0H12.3486ZM37.7051 0C41.7275 0 45 3.27248 45 7.29492V12.3486C45 12.9796 44.4884 13.4912 43.8574 13.4912C43.2264 13.4912 42.7148 12.9796 42.7148 12.3486V7.29492C42.7148 4.53252 40.4674 2.28516 37.7051 2.28516H32.6514C32.0204 2.28516 31.5088 1.77359 31.5088 1.14258C31.5088 0.511567 32.0204 0 32.6514 0H37.7051Z" fill="#4F5962"/>
</svg>
