<svg width="108" height="125" viewBox="0 0 108 125" fill="none" xmlns="http://www.w3.org/2000/svg">
<path d="M64.9018 124.241C49.6075 118.826 40.0232 107.722 34.7039 92.7302C33.2359 88.9078 32.7505 84.7741 33.2931 80.7125C33.8357 76.6509 35.3889 72.793 37.8079 69.497C42.7718 62.5079 49.6549 59.5024 58.0899 61.2318C66.5248 62.9612 72.0098 68.5071 74.2133 76.9154C74.9359 79.6824 74.7821 82.676 74.9953 85.5742C75.0557 87.4862 75.6111 89.3492 76.6064 90.9788C77.6017 92.6084 79.0024 93.948 80.67 94.8651C82.1548 95.6852 83.8135 96.1343 85.5065 96.1749C87.1996 96.2155 88.8773 95.8463 90.3991 95.0984C91.921 94.3504 93.2421 93.2456 94.2517 91.8767C95.2613 90.5079 95.93 88.915 96.2011 87.232C96.7874 82.8914 96.5379 78.4776 95.4664 74.2319C92.635 60.9217 85.7403 50.3785 73.9408 43.4968C66.2553 39.1092 57.3612 37.3566 48.5997 38.5033C39.8382 39.65 31.6845 43.6337 25.3688 49.8537C17.4254 57.5826 12.5819 67.982 11.7605 79.0726C10.9391 90.1633 14.197 101.171 20.914 110C21.381 110.475 21.7358 111.05 21.9512 111.682C22.1666 112.314 22.2373 112.986 22.1583 113.65C22.0621 114.4 21.7388 115.103 21.2322 115.662C20.7256 116.221 20.0603 116.609 19.3268 116.774C18.565 116.989 17.7559 116.958 17.0123 116.687C16.2688 116.415 15.6282 115.916 15.1804 115.26C11.35 110.457 8.44506 104.976 6.61512 99.0991C0.964171 80.3742 4.06814 63.2235 16.4836 48.1482C20.6189 42.948 25.8089 38.6962 31.7069 35.6768C37.605 32.6575 44.0755 30.9403 50.6856 30.6398C69.913 29.5187 84.6266 37.7958 95.2414 53.6106C101.524 63.1239 104.643 74.3997 104.15 85.8127C103.994 90.4837 102.116 94.9286 98.8805 98.2804C95.6453 101.632 91.2857 103.65 86.6525 103.941C82.0948 104.136 77.627 102.625 74.1097 99.7009C70.5924 96.7764 68.2745 92.6451 67.6026 88.1027C67.2235 85.5146 67.3898 82.8549 67.0936 80.243C66.1814 72.1328 57.7581 66.5392 50.342 69.1869C45.1175 71.0475 42.4519 75.2218 41.362 80.4696C40.2721 85.7173 41.5515 90.3568 43.7314 94.9128C47.6449 102.948 53.7144 109.719 61.2529 114.461C62.8971 115.632 64.8159 116.351 66.8206 116.548C67.6266 116.64 68.3798 117 68.9609 117.57C69.542 118.14 69.9187 118.888 70.0316 119.697C70.1884 120.518 70.0695 121.369 69.6944 122.116C69.3192 122.863 68.7089 123.463 67.9584 123.823L67.1052 124.241H64.9018Z" fill="#727A81"/>
<path d="M41.0533 124.241C40.0727 123.64 39.1525 122.945 38.305 122.165C31.114 114.27 25.0603 105.647 21.1508 95.5926C17.8585 87.1779 17.7545 77.8382 20.8587 69.3513C23.9629 60.8645 30.0584 53.823 37.9851 49.5674C46.0653 45.3573 55.4567 44.4807 64.1679 47.1235C72.8792 49.7663 80.2258 55.7207 84.65 63.7244C87.7902 69.2173 89.4713 75.4322 89.5311 81.7695C89.5311 84.4053 88.1449 86.1586 85.8584 86.2301C83.572 86.3017 81.9017 84.6081 81.8306 81.9246C81.8242 77.8911 80.9769 73.9038 79.3444 70.2203C77.7119 66.5368 75.3305 63.239 72.3531 60.54C69.224 57.6728 65.4743 55.5787 61.4018 54.4235C57.3292 53.2683 53.0454 53.0839 48.8897 53.8847C44.734 54.6856 40.8208 56.4498 37.4599 59.0375C34.099 61.6252 31.3825 64.9653 29.5263 68.7933C25.2022 77.4043 25.3446 86.1228 29.1712 94.877C32.9618 103.152 38.0944 110.734 44.3586 117.311C45.9935 119.1 46.2427 121.295 44.8092 122.845C44.1838 123.391 43.4957 123.859 42.7597 124.241H41.0533Z" fill="#4F5962"/>
<path d="M107.976 47.3133C107.895 47.4019 107.827 47.5024 107.775 47.6115C107.574 48.3156 107.166 48.9424 106.606 49.4103C106.047 49.8783 105.36 50.1658 104.636 50.2354C103.894 50.3536 103.134 50.2452 102.454 49.9242C101.774 49.6032 101.205 49.0842 100.821 48.4344C98.342 44.7011 95.4312 41.278 92.1491 38.2371C80.1008 27.193 65.9556 21.8379 49.7017 23.1737C31.9315 24.6406 18.0589 33.216 7.71659 47.7069C7.40073 48.3178 6.96326 48.8566 6.43125 49.2896C5.89924 49.7226 5.28369 50.0405 4.62415 50.2234C3.87072 50.3732 3.09033 50.2905 2.38435 49.9862C1.67837 49.6819 1.07986 49.1701 0.667485 48.5179C0.215639 47.8848 -0.018146 47.1205 0.00109983 46.3412C0.0203457 45.5618 0.291384 44.8102 0.773921 44.2005C3.5381 40.4841 6.50434 36.9245 9.65905 33.538C18.3608 24.7246 29.5144 18.7774 41.6455 16.4828C61.2876 12.702 78.8805 17.3892 94.4473 29.9361C99.2604 33.8657 103.468 38.4918 106.934 43.6637C107.313 44.2124 107.645 44.8564 108 45.3812L107.976 47.3133Z" fill="#4F5962"/>
<path d="M56.9161 0C71.5114 0.226608 86.7585 6.16611 99.8256 17.7946C100.415 18.2255 100.877 18.8091 101.162 19.4832C101.448 20.1574 101.547 20.8969 101.449 21.6231C100.927 24.7598 97.5032 25.9048 94.9561 23.8534C92.4091 21.802 90.0045 19.7149 87.339 17.8901C76.7844 10.6897 64.1884 7.14371 51.4549 7.78814C37.9178 8.35748 24.9719 13.5287 14.7296 22.458C14.1728 22.9351 13.6517 23.4241 13.0949 23.8892C12.3355 24.5691 11.3408 24.9214 10.3258 24.87C9.31086 24.8187 8.35687 24.368 7.66896 23.6149C7.31976 23.2346 7.05061 22.7871 6.87763 22.2993C6.70465 21.8116 6.63146 21.2936 6.66244 20.7767C6.69343 20.2597 6.82754 19.7544 7.05753 19.2911C7.28752 18.8278 7.60832 18.4162 8.00042 18.0809C13.3996 13.117 19.5555 9.05795 26.2329 6.05877C34.9048 2.07525 44.4769 0 56.9161 0Z" fill="#4F5962"/>
<path d="M79.8994 116.643C74.5605 116.267 69.4821 114.177 65.4108 110.68C55.8148 102.904 50.377 92.9091 49.9387 80.3622C49.8558 77.7741 51.4082 75.997 53.6947 75.9612C55.9811 75.9255 57.5091 77.6668 57.6513 80.231C58.2437 91.7641 63.3734 100.626 73.1234 106.72C75.3684 108.078 77.9215 108.834 80.5392 108.915C81.0612 108.914 81.5777 109.02 82.0577 109.227C82.5376 109.434 82.9713 109.736 83.3314 110.117C83.6915 110.497 83.9709 110.947 84.1528 111.44C84.3348 111.932 84.4151 112.457 84.3894 112.982C84.3442 113.523 84.1908 114.05 83.9382 114.53C83.6857 115.01 83.3395 115.434 82.9201 115.776C82.5008 116.118 82.0167 116.371 81.4977 116.52C80.9787 116.669 80.4349 116.711 79.8994 116.643Z" fill="#4F5962"/>
</svg>
